<svg width="20" height="20" viewBox="0 0 20 20" fill="none" xmlns="http://www.w3.org/2000/svg">
<path d="M17.415 14.1035L13.3545 10.2891C13.1995 10.1523 13.0355 10.0475 12.8623 9.97461C12.6891 9.90169 12.5091 9.86523 12.3223 9.86523C12.1354 9.86523 11.9577 9.89941 11.7891 9.96777C11.6204 10.0361 11.4564 10.1387 11.2969 10.2754L8.20703 13.0371L6.94238 11.8955C6.80111 11.7679 6.65072 11.6722 6.49121 11.6084C6.33626 11.54 6.17904 11.5059 6.01953 11.5059C5.86458 11.5059 5.71419 11.5378 5.56836 11.6016C5.42253 11.6654 5.27897 11.7611 5.1377 11.8887L2.5332 14.2402C2.55599 14.86 2.69499 15.3249 2.9502 15.6348C3.2054 15.9492 3.58822 16.1064 4.09863 16.1064H15.5557C16.1755 16.1064 16.6403 15.9355 16.9502 15.5938C17.2601 15.2565 17.415 14.7598 17.415 14.1035ZM7.09277 10.3574C7.389 10.3574 7.65788 10.2868 7.89941 10.1455C8.14095 9.99967 8.33464 9.80371 8.48047 9.55762C8.6263 9.31152 8.69922 9.04036 8.69922 8.74414C8.69922 8.45247 8.6263 8.18359 8.48047 7.9375C8.33464 7.69141 8.14095 7.49544 7.89941 7.34961C7.65788 7.20378 7.389 7.13086 7.09277 7.13086C6.79655 7.13086 6.52539 7.20378 6.2793 7.34961C6.03776 7.49544 5.84408 7.69141 5.69824 7.9375C5.55241 8.18359 5.47949 8.45247 5.47949 8.74414C5.47949 9.04036 5.55241 9.31152 5.69824 9.55762C5.84408 9.80371 6.03776 9.99967 6.2793 10.1455C6.52539 10.2868 6.79655 10.3574 7.09277 10.3574ZM4.14648 16.585H15.9727C16.6927 16.585 17.2305 16.4072 17.5859 16.0518C17.9414 15.7008 18.1191 15.1745 18.1191 14.4727V6.11914C18.1191 5.41732 17.9414 4.88867 17.5859 4.5332C17.2305 4.17773 16.6927 4 15.9727 4H4.14648C3.43099 4 2.89323 4.17773 2.5332 4.5332C2.17773 4.88411 2 5.41276 2 6.11914V14.4727C2 15.1745 2.17773 15.7008 2.5332 16.0518C2.89323 16.4072 3.43099 16.585 4.14648 16.585ZM4.16016 15.4844C3.81836 15.4844 3.55632 15.3955 3.37402 15.2178C3.19173 15.0355 3.10059 14.7666 3.10059 14.4111V6.18066C3.10059 5.8252 3.19173 5.55632 3.37402 5.37402C3.55632 5.19173 3.81836 5.10059 4.16016 5.10059H15.959C16.2962 5.10059 16.556 5.19173 16.7383 5.37402C16.9251 5.55632 17.0186 5.8252 17.0186 6.18066V14.4111C17.0186 14.7666 16.9251 15.0355 16.7383 15.2178C16.556 15.3955 16.2962 15.4844 15.959 15.4844H4.16016Z" fill="#A0A0A0"/>
</svg>
